<?xml version="1.0" encoding="UTF-8"?><svg id="Layer_1" xmlns="http://www.w3.org/2000/svg" viewBox="0 0 331.1 175.84"><defs><style>.cls-1{fill:#f47648;}.cls-2{fill:#fac964;}.cls-3{fill:#fae9b4;}.cls-4{fill:#fbdf88;}.cls-5{fill:#6790b5;}.cls-6{fill:#3c9394;}.cls-7{fill:#971a3f;}.cls-8{fill:#2f4259;}.cls-9{fill:#58595b;}.cls-10{stroke:#938551;}.cls-10,.cls-11{fill:none;stroke-miterlimit:10;stroke-width:1.03px;}.cls-11{stroke:#77787b;}</style></defs><polygon class="cls-4" points="309.28 18.03 220.97 24.91 209.85 125.88 310.48 105.05 309.28 18.03"/><path class="cls-11" d="m207.29,128.22c-14.81,14.2-33.58,25.88-54.1,26.24-23.61.42-44.76-13.89-67.7-19.51-10.5-2.57-22.87-2.84-30.74,4.57"/><path class="cls-11" d="m63.2,134.68c-2.94.45-6.16.03-9.82-1.79"/><polyline class="cls-10" points="309.28 18.03 276.17 54.66 209.85 125.88"/><circle class="cls-5" cx="185.21" cy="144.9" r="4.07"/><circle class="cls-6" cx="161.24" cy="153.66" r="4.07"/><circle class="cls-2" cx="133.43" cy="151.84" r="4.07"/><circle class="cls-1" cx="107.33" cy="143" r="4.07"/><circle class="cls-7" cx="80.21" cy="133.59" r="4.07"/><polygon class="cls-2" points="209.85 125.88 295.85 80.98 309.28 18.03 310.48 105.05 209.85 125.88"/><polygon class="cls-3" points="209.85 125.88 236.67 32.18 309.28 18.03 220.97 24.91 209.85 125.88"/><path class="cls-10" d="m220.97,24.91s43.56,19.25,55.2,29.74c11.32,10.21,34.3,50.4,34.3,50.4"/><circle class="cls-8" cx="220.97" cy="24.91" r="5.7"/><circle class="cls-8" cx="309.28" cy="18.03" r="5.7"/><circle class="cls-8" cx="310.48" cy="105.05" r="5.7"/><circle class="cls-8" cx="209.85" cy="125.88" r="5.7"/><circle class="cls-8" cx="276.47" cy="54.81" r="5.7"/><path class="cls-9" d="m17.31,61.58c0-3.71-.07-6.75-.3-9.72h5.72l.3,5.79h.22c2-3.41,5.35-6.61,11.28-6.61,4.9,0,8.61,2.97,10.17,7.2h.15c1.11-2,2.52-3.56,4.01-4.68,2.15-1.63,4.53-2.52,7.94-2.52,4.75,0,11.8,3.12,11.8,15.59v21.16h-6.38v-20.34c0-6.9-2.52-11.06-7.79-11.06-3.71,0-6.61,2.75-7.72,5.94-.3.89-.52,2.08-.52,3.27v22.2h-6.38v-21.53c0-5.72-2.52-9.87-7.5-9.87-4.08,0-7.05,3.27-8.09,6.53-.37.96-.52,2.08-.52,3.19v21.68h-6.38v-26.21Z"/><path class="cls-9" d="m85.67,68.33h.15c.89-1.26,2.15-2.82,3.19-4.08l10.54-12.4h7.87l-13.88,14.77,15.81,21.16h-7.94l-12.4-17.22-3.34,3.71v13.51h-6.46v-52.71h6.46v33.26Z"/><path class="cls-8" d="m122.57,41.76c.07,2.23-1.56,4.01-4.16,4.01-2.3,0-3.93-1.78-3.93-4.01s1.71-4.08,4.08-4.08,4.01,1.78,4.01,4.08Zm-7.28,46.03v-35.93h6.53v35.93h-6.53Z"/><path class="cls-8" d="m140.53,41.53v10.32h9.35v4.97h-9.35v19.38c0,4.45,1.26,6.98,4.9,6.98,1.71,0,2.97-.22,3.79-.45l.3,4.9c-1.26.52-3.27.89-5.79.89-3.04,0-5.49-.96-7.05-2.75-1.86-1.93-2.52-5.12-2.52-9.35v-19.6h-5.57v-4.97h5.57v-8.61l6.38-1.71Z"/><path class="cls-8" d="m160.42,71.01c.15,8.83,5.79,12.47,12.32,12.47,4.68,0,7.5-.82,9.95-1.86l1.11,4.68c-2.3,1.04-6.24,2.23-11.95,2.23-11.06,0-17.67-7.28-17.67-18.11s6.38-19.38,16.85-19.38c11.73,0,14.85,10.32,14.85,16.93,0,1.34-.15,2.38-.22,3.04h-25.24Zm19.15-4.68c.07-4.16-1.71-10.62-9.06-10.62-6.61,0-9.5,6.09-10.02,10.62h19.08Z"/></svg>